# xmcd
#
# Track frame offsets:
#	150
#	12839
#	23597
#	39435
#	51405
#	66779
#	80835
#	93723
#	107684
#	119144
#	143115
#	157872
#	167323
#	184093
#	195828
#	210556
#	224806
#	236200
#	251305
#	262437
#	277683
#	305165
#	316036
#
# Disc length: 4454 seconds
#
# Revision: 2
# Processed by: cddbd v1.4b41PL3 Copyright (c) Steve Scherf et al.
# Submitted via: EZCDDA 4.3.2
#
DISCID=48116417
DTITLE=Nancy - From The Beginning
DYEAR=1900
DGENRE=
TTITLE0=Now I'm a woman
TTITLE1=Joe
TTITLE2=Make it with you
TTITLE3=(You don't know) How glad I am
TTITLE4=Guess who I saw today
TTITLE5=Face it girl (it's over)
TTITLE6=When did you leave heaven
TTITLE7=For once in my life
TTITLE8=Welcome to my love
TTITLE9=Ode to Billie Joe
TTITLE10=I was telling him about you
TTITLE11=I want to be with you
TTITLE12=People
TTITLE13=In the dark
TTITLE14=Willow weep for me
TTITLE15=Since I fell for you
TTITLE16=Just for a thrill
TTITLE17=I wish I didn't love you so
TTITLE18=This bitter earth
TTITLE19=The greatest performance of my life
TTITLE20=Mr. Bojangles
TTITLE21=The look of love
TTITLE22=Sunny
EXTD=
EXTT0=
EXTT1=
EXTT2=
EXTT3=
EXTT4=
EXTT5=
EXTT6=
EXTT7=
EXTT8=
EXTT9=
EXTT10=
EXTT11=
EXTT12=
EXTT13=
EXTT14=
EXTT15=
EXTT16=
EXTT17=
EXTT18=
EXTT19=
EXTT20=
EXTT21=
EXTT22=
PLAYORDER=
